<svg width="768" height="512" viewBox="0 0 768 512" fill="none" xmlns="http://www.w3.org/2000/svg">
<path d="M7 325V148H104V77H259V181H453V149H544V302H256V325H7Z" stroke="#1D1D1D" stroke-width="3" stroke-linejoin="round"/>
<rect x="256" y="229" width="251" height="35" stroke="#1D1D1D" stroke-width="3" stroke-linejoin="round"/>
<rect x="32" y="200" width="224" height="94" stroke="#1D1D1D" stroke-width="3" stroke-linejoin="round"/>
<rect x="123" y="122" width="109" height="59" stroke="#1D1D1D" stroke-width="3" stroke-linejoin="round"/>
<rect x="190" y="84" width="30" height="27" stroke="#1D1D1D" stroke-width="3" stroke-linejoin="round"/>
<rect x="10" y="82" width="94" height="34" stroke="#1D1D1D" stroke-width="3" stroke-linejoin="round"/>
<rect x="68" y="89" width="29" height="20" stroke="#1D1D1D" stroke-width="3" stroke-linejoin="round"/>
<rect x="59" y="123" width="23" height="18" stroke="#1D1D1D" stroke-width="3" stroke-linejoin="round"/>
<rect x="284" y="122" width="67" height="48" stroke="#1D1D1D" stroke-width="3" stroke-linejoin="round"/>
<rect x="300" y="116" width="26" height="6" stroke="#1D1D1D" stroke-width="3" stroke-linejoin="round"/>
<rect x="187" y="71" width="66" height="6" stroke="#1D1D1D" stroke-width="3" stroke-linejoin="round"/>
<rect x="145" y="325" width="102" height="6" stroke="#1D1D1D" stroke-width="3" stroke-linejoin="round"/>
<rect x="273" y="302" width="40" height="6" stroke="#1D1D1D" stroke-width="3" stroke-linejoin="round"/>
<rect x="460" y="156" width="35" height="25" stroke="#1D1D1D" stroke-width="3" stroke-linejoin="round"/>
<rect x="713" y="434" width="48" height="48" stroke="#1D1D1D" stroke-width="3" stroke-linejoin="round"/>
<rect x="502" y="156" width="35" height="25" stroke="#1D1D1D" stroke-width="3" stroke-linejoin="round"/>
<rect x="564" y="193" width="35" height="25" stroke="#1D1D1D" stroke-width="3" stroke-linejoin="round"/>
<rect x="572" y="252" width="56" height="42" stroke="#1D1D1D" stroke-width="3" stroke-linejoin="round"/>
<ellipse cx="628" cy="206" rx="19" ry="17" stroke="#1D1D1D" stroke-width="3" stroke-linejoin="round"/>
</svg>
