<svg width="758" height="415" viewBox="0 0 758 415" fill="none" xmlns="http://www.w3.org/2000/svg">
<path d="M2 256V79H99V8H254V112H448V80H539V233H251V256H2Z" fill="white" fill-opacity="0.3" stroke="#1D1D1D" stroke-width="3" stroke-linejoin="round"/>
<rect x="251" y="160" width="251" height="35" stroke="#1D1D1D" stroke-width="3" stroke-linejoin="round"/>
<rect x="27" y="131" width="224" height="94" stroke="#1D1D1D" stroke-width="3" stroke-linejoin="round"/>
<rect x="118" y="53" width="109" height="59" stroke="#1D1D1D" stroke-width="3" stroke-linejoin="round"/>
<rect x="185" y="15" width="30" height="27" stroke="#1D1D1D" stroke-width="3" stroke-linejoin="round"/>
<rect x="5" y="13" width="94" height="34" fill="white" fill-opacity="0.3" stroke="#1D1D1D" stroke-width="3" stroke-linejoin="round"/>
<rect x="63" y="20" width="29" height="20" stroke="#1D1D1D" stroke-width="3" stroke-linejoin="round"/>
<rect x="54" y="54" width="23" height="18" fill="white" fill-opacity="0.3" stroke="#1D1D1D" stroke-width="3" stroke-linejoin="round"/>
<rect x="279" y="53" width="67" height="48" fill="white" fill-opacity="0.3" stroke="#1D1D1D" stroke-width="3" stroke-linejoin="round"/>
<rect x="295" y="47" width="26" height="6" fill="white" fill-opacity="0.3" stroke="#1D1D1D" stroke-width="3" stroke-linejoin="round"/>
<rect x="182" y="2" width="66" height="6" fill="white" fill-opacity="0.3" stroke="#1D1D1D" stroke-width="3" stroke-linejoin="round"/>
<rect x="140" y="256" width="102" height="6" fill="white" fill-opacity="0.3" stroke="#1D1D1D" stroke-width="3" stroke-linejoin="round"/>
<rect x="268" y="233" width="40" height="6" fill="white" fill-opacity="0.3" stroke="#1D1D1D" stroke-width="3" stroke-linejoin="round"/>
<rect x="455" y="87" width="35" height="25" stroke="#1D1D1D" stroke-width="3" stroke-linejoin="round"/>
<rect x="708" y="365" width="48" height="48" fill="white" fill-opacity="0.3" stroke="#1D1D1D" stroke-width="3" stroke-linejoin="round"/>
<rect x="497" y="87" width="35" height="25" stroke="#1D1D1D" stroke-width="3" stroke-linejoin="round"/>
<rect x="559" y="124" width="35" height="25" fill="white" fill-opacity="0.3" stroke="#1D1D1D" stroke-width="3" stroke-linejoin="round"/>
<rect x="567" y="183" width="56" height="42" fill="white" fill-opacity="0.3" stroke="#1D1D1D" stroke-width="3" stroke-linejoin="round"/>
<circle cx="621" cy="137" r="17" fill="white" fill-opacity="0.3" stroke="#1D1D1D" stroke-width="3" stroke-linejoin="round"/>
</svg>
